<svg xmlns="http://www.w3.org/2000/svg" width="150" viewBox="0 0 3165 1983"><path d="M2088.1 1067.3c-9.5-1.5-19-2.7-28.6-3.6-9.5-.9-17.9-1.3-25-1.3-38.1 0-72.8 3.4-104.1 10.3-31.3 6.9-57.3 14.2-78.2 21.9v444.8h108.1v-374.2c5.4-1.8 14.7-3.9 28.1-6.3 13.4-2.4 26-3.6 38-3.6 20.8 0 39.1 1.6 54.9 4.9 15.8 3.3 28.1 6.4 37.1 9.4l18.8-91.1c-5.4-1.8-12.5-3.7-21.4-5.8-9-2.1-18.2-3.9-27.7-5.4zm-224.8 825c-2.4-2.8-4.1-6.3-5.1-10.3-.9-4.1-1.4-9.1-1.4-15v-243.1l-49.1 8.1v244.3c0 10.6 1.1 20 3.4 28.2 2.3 8.3 6.3 15.2 12 20.7s13.3 9.8 22.9 12.8c9.6 3 21.7 4.6 36.3 4.9l6.9-40.6c-6.5-.8-11.8-2-16-3.4-4.1-1.6-7.4-3.8-9.9-6.6zm-114.1-877.1c26.9 52.7 29.1 121.1 6.6 205.2-1.7 6.3-3.8 13.4-6.2 21.2-2.4 7.8-4.8 14.8-7.1 21l-327.4-87.7c-7.5 40.7-1.7 75.3 17.4 103.8 19.1 28.5 52.4 49.1 99.9 61.9 27.8 7.5 54 11.8 78.4 12.9 24.4 1.1 44.1.6 58.9-1.5l-10 98c-7.2 1.5-16.8 2.5-28.8 3s-25.5.3-40.5-.7-31-2.7-47.9-5.2c-17-2.5-34-6.1-51.1-10.6-43.7-11.7-79.9-28.4-108.7-50-28.8-21.6-50.5-46.8-65.2-75.5-14.7-28.7-22.9-60-24.6-94.1-1.7-34 2.4-69.7 12.4-107 11.7-43.7 28.4-80.2 50.2-109.6 21.8-29.4 46.4-52.2 73.7-68.2 27.3-16.1 56.4-25.9 87.2-29.5 30.8-3.6 60.8-1.5 89.9 6.3 68.4 18.1 116 53.6 142.9 106.3zm-91.6 85.8c-.6-15.4-3.8-29.5-9.5-42.2s-14-23.7-24.7-33.1c-10.7-9.3-24.6-16.3-41.7-20.8-17.7-4.7-34.1-5.6-49.2-2.5-15.1 3.1-28.6 8.8-40.7 17.1-12.1 8.3-22.5 18.7-31.3 31.3-8.7 12.5-16.1 25.8-21.9 39.9l213.5 57.2c4.3-15.9 6.1-31.5 5.5-46.9zm-214.9 685.8c5 13.7 7.5 28.9 7.5 45.7 0 16.8-2.4 32.1-7.3 45.9-4.9 13.8-11.8 25.6-20.7 35.3-8.9 9.7-19.7 17.3-32.3 22.7-12.6 5.4-26.4 8.1-41.6 8.1-15.2 0-29-2.7-41.4-8.1-12.4-5.4-23.1-13-32.1-22.7-8.9-9.7-15.9-21.5-20.9-35.3-5-13.8-7.5-29.1-7.5-45.9 0-16.8 2.5-32 7.5-45.7 5-13.7 12-25.4 21.1-35.1 9.1-9.7 19.8-17.2 32.3-22.5 12.4-5.3 26.1-7.9 41-7.9 14.9 0 28.6 2.6 41.2 7.9 12.6 5.3 23.3 12.8 32.3 22.5 9 9.7 15.9 21.4 20.9 35.1zm-42.8 45.6c0-21.1-4.5-37.8-13.6-50.1-9.1-12.3-21.7-18.5-37.9-18.5s-28.9 6.2-37.9 18.5c-9.1 12.3-13.6 29-13.6 50.1 0 21.4 4.5 38.3 13.6 50.7 9.1 12.4 21.7 18.7 37.9 18.7s28.9-6.2 37.9-18.7c9.1-12.4 13.6-29.3 13.6-50.7zm318-45.6c5 13.7 7.5 28.9 7.5 45.7 0 16.8-2.4 32.1-7.3 45.9s-11.8 25.6-20.7 35.3c-8.9 9.7-19.7 17.3-32.3 22.7-12.6 5.4-26.4 8.1-41.6 8.1-15.2 0-29-2.7-41.4-8.1-12.4-5.4-23.1-13-32.1-22.7-8.9-9.7-15.9-21.5-20.9-35.3-5-13.8-7.5-29.1-7.5-45.9 0-16.8 2.5-32 7.5-45.7 5-13.7 12-25.4 21.1-35.1 9.1-9.7 19.8-17.2 32.3-22.5 12.4-5.3 26.1-7.9 41-7.9 14.9 0 28.6 2.6 41.2 7.9 12.6 5.3 23.3 12.8 32.3 22.5 8.9 9.7 15.8 21.4 20.9 35.1zm-42.9 45.6c0-21.1-4.5-37.8-13.6-50.1-9.1-12.3-21.7-18.5-37.9-18.5s-28.9 6.2-37.9 18.5c-9.1 12.3-13.6 29-13.6 50.1 0 21.4 4.5 38.3 13.6 50.7 9.1 12.4 21.7 18.7 37.9 18.7s28.9-6.2 37.9-18.7c9.1-12.4 13.6-29.3 13.6-50.7zm410.9 7.5c-5.3-5.3-12-10-20.1-14.2-8.1-4.2-18-8.5-29.6-12.8-7-2.4-13-4.8-17.9-7.1-4.9-2.3-8.8-4.6-11.8-6.9-3-2.3-5.1-4.8-6.3-7.5-1.2-2.7-1.8-5.8-1.8-9.3 0-7 3.1-12.2 9.3-15.6 6.2-3.4 14.3-5.1 24.3-5.1 11.1 0 20.8 1 29.2 3 8.4 2 15.3 4.3 20.7 6.7l8.9-39.8c-5.7-2.2-14.2-4.4-25.6-6.7-11.4-2.3-23.3-3.4-35.7-3.4-24.6 0-44.1 5.6-58.4 16.8-14.3 11.2-21.5 26.6-21.5 46.1 0 10 1.6 18.5 4.7 25.4 3.1 6.9 7.4 12.8 12.8 17.7 5.4 4.9 11.8 9.1 19.3 12.8 7.4 3.7 15.6 7.1 24.6 10.3 14.6 5.4 25.1 10.4 31.4 15 6.4 4.6 9.5 10.4 9.5 17.4 0 7.6-3 12.9-8.9 16-6 3.1-15.4 4.7-28.4 4.7s-24.6-1.3-34.7-4.1c-10.1-2.7-18.9-5.5-26.2-8.5l-8.5 41c4.6 1.9 12.6 4.4 23.9 7.5 11.4 3.1 26.4 4.7 45 4.7 27.9 0 49.3-5.2 64.3-15.6s22.5-25.8 22.5-46.1c0-9.5-1.2-17.6-3.7-24.3-2.2-6.8-6-12.8-11.3-18.1zm1045.4-540.8c0 6-.2 12.7-.4 20.1-.3 7.5-.8 14.2-1.3 20.1h-308.1c3 37.5 16.2 66.5 39.7 87.1 23.5 20.5 57.6 30.8 102.3 30.8 26.2 0 50.2-2.4 71.9-7.1 21.7-4.8 38.9-9.8 51.4-15.2l14.3 88.4c-6 3-14.1 6.1-24.6 9.4-10.4 3.3-22.3 6.3-35.7 8.9-13.4 2.7-27.8 4.9-43.3 6.7-15.5 1.8-31.3 2.7-47.3 2.7-41.1 0-76.8-6.1-107.2-18.3-30.4-12.2-55.4-29.2-75-50.9s-34.2-47.3-43.8-76.8c-9.5-29.5-14.3-61.8-14.3-96.9 0-41.1 6.1-77.1 18.3-108.1 12.2-31 28.4-56.7 48.7-77.3 20.2-20.5 43.5-36 69.7-46.4 26.2-10.4 53-15.6 80.4-15.6 64.3 0 114.5 20 150.5 59.8 35.8 39.9 53.8 99.4 53.8 178.6zm-108.1-39.3c0-14.9-2.1-29-6.3-42.4-4.2-13.4-10.3-25-18.3-34.8-8-9.8-17.9-17.6-29.5-23.2-11.6-5.7-25.5-8.5-41.5-8.5-16.7 0-31.3 3.1-43.8 9.4-12.5 6.3-23.1 14.4-31.7 24.6-8.6 10.1-15.3 21.7-20.1 34.8-4.7 13-8 26.5-9.8 40.2l201-.1zm-505.5-189.4c31.6 5.4 58.3 11 80.4 17V1492c0 74.4-18.9 128.9-56.7 163.4-37.8 34.5-95.7 51.8-173.7 51.8-28.6 0-56.4-2.4-83.5-7.1-27.1-4.8-51.7-11-73.7-18.8l19.6-92c18.4 7.7 39.4 14 63 18.8 23.5 4.8 49 7.1 76.4 7.1 43.5 0 74.4-8.9 92.9-26.8 18.4-17.9 27.7-44.4 27.7-79.5V1491c-10.7 5.4-24.9 10.7-42.4 16.1-17.6 5.4-37.7 8-60.3 8-29.8 0-57-4.8-81.7-14.3-24.7-9.5-45.9-23.5-63.4-42-17.6-18.4-31.3-41.5-41.1-69.2-9.8-27.7-14.7-59.7-14.7-96 0-33.9 5.2-65.2 15.6-93.8 10.4-28.6 25.6-53 45.6-73.2 19.9-20.2 44.2-36 72.8-47.3 28.6-11.3 61-17 97.4-17 34.9.1 68.2 2.8 99.8 8.1zm-27.7 89.4c-7.7-1.8-17.3-3.4-28.6-4.9-11.3-1.5-25.6-2.2-42.9-2.2-39.3 0-69.4 13-90.2 38.9-20.9 25.9-31.3 60-31.3 102.3 0 45.9 10 79.4 29.9 100.5 19.9 21.1 45.7 31.7 77.3 31.7 17.3 0 33.5-2.4 48.7-7.1 15.2-4.8 27.5-10.4 37.1-17v-242.2zm-1315.2-38c-13.4-18.8-31.9-33.3-55.4-43.8-23.5-10.4-53.4-15.6-89.8-15.6-14.3 0-28.4 1.5-42.4 4.5s-27.2 6.7-39.7 11.2c-12.5 4.5-23.8 9.4-33.9 14.7-10.1 5.4-18.5 10.4-25 15.2-13.7-13.7-30.8-24.7-51.4-33-20.5-8.3-46.9-12.5-79-12.5-37.5 0-73.1 2.7-106.7 8-33.6 5.4-60.9 11-81.7 17v451.9h108.1v-376.9c7.1-1.2 17.9-2.7 32.2-4.5 14.3-1.8 27.4-2.7 39.3-2.7 33.3 0 56.1 10.9 68.3 32.6 12.2 21.7 18.3 57 18.3 105.8v245.6h108v-258.1c0-19.1-.9-36.9-2.7-53.6-1.8-16.7-5.1-32.4-9.8-47.3 7.7-5.4 19.3-10.9 34.8-16.5 15.5-5.7 31.8-8.5 49.1-8.5 33.9 0 56.9 10.9 68.8 32.6 11.9 21.7 17.9 57 17.9 105.8v245.6h108.1v-262.6c0-31.6-2.5-60.6-7.6-87.1-5.1-26.4-14.4-49-27.8-67.8zm-7.6 776.8c-6.9 1.9-14.8 2.8-23.7 2.8-13 0-22.2-3.7-27.6-11-5.4-7.3-8.1-19.5-8.1-36.5v-86.4h75.5v-41h-75.5v-64.1l-49.1 8.1v183.8c0 14.1 1.2 26.6 3.7 37.5 2.4 11 6.6 20.3 12.6 28 5.9 7.7 14 13.6 24.1 17.7 10.1 4.1 22.8 6.1 37.9 6.1 12.4 0 23.3-1.3 32.5-3.9 9.2-2.6 16.6-5.1 22.3-7.5l-8.1-39c-4.1 1.7-9.6 3.5-16.5 5.4zm-765.8-778.1c36 39.9 54 99.4 54 178.6 0 6-.2 12.7-.4 20.1-.3 7.5-.8 14.2-1.3 20.1H145.5c3 37.5 16.2 66.5 39.7 87.1 23.5 20.5 57.6 30.8 102.3 30.8 26.2 0 50.2-2.4 71.9-7.1 21.7-4.8 38.9-9.8 51.4-15.2l14.3 88.4c-6 3-14.1 6.1-24.6 9.4-10.4 3.3-22.3 6.3-35.7 8.9-13.4 2.7-27.8 4.9-43.3 6.7-15.5 1.8-31.3 2.7-47.3 2.7-41.1 0-76.8-6.1-107.2-18.3-30.4-12.2-55.4-29.2-75-50.9s-34.2-47.3-43.8-76.8c-9.5-29.5-14.3-61.8-14.3-96.9 0-41.1 6.1-77.1 18.3-108.1 12.2-31 28.4-56.7 48.7-77.3 20.2-20.5 43.5-36 69.7-46.4 26.2-10.4 53-15.6 80.4-15.6 64.2-.1 114.3 19.9 150.4 59.8zm-54.1 139.3c0-14.9-2.1-29-6.3-42.4-4.2-13.4-10.3-25-18.3-34.8-8-9.8-17.9-17.6-29.5-23.2-11.6-5.7-25.5-8.5-41.5-8.5-16.7 0-31.3 3.1-43.8 9.4-12.5 6.3-23.1 14.4-31.7 24.6-8.6 10.1-15.3 21.7-20.1 34.8-4.7 13-8 26.5-9.8 40.2h201v-.1zM2036.1 375c198.2 95 270.7 207.2 296.4 285.7-24-45.8-75.3-93.8-147.4-139.7-26.8-43.3-72.3-96.6-149-146zm107.8 121.3c-29.2-44.4-77.1-96.3-156.5-143.1-29.1-12.3-60.5-24.1-94.5-35.5 13.6 29 22.5 55.7 28.4 79.4 84.4 29.7 159.7 63.5 222.6 99.2zm-247.6-107.9c-4.4-23.1-11.8-49.1-23.5-77.4-45.7-14.6-95.7-28.4-150.5-41-72.7-16.7-139.4-28.1-200.6-35.2-20 22.9-33.5 44.2-42.6 61.2 59 6.7 120.1 16.4 182.4 29.3 83.3 17.2 162.2 38.7 234.8 63.1zm247.6 107.9zm-1003.8-204c89.2-10.4 195.2-10.6 310.4.8 10.6-17.3 25.8-38.4 47.4-60.8-30.6-3.1-59.8-5-87.6-6-124.4 3.3-210.9 32.4-270.2 66zm167.2-81.1c38.6-50.8 166-173.5 464-107.7 232.2 51.2 308.3 221.6 329.8 289.7-89.8-52-212.1-100.9-378.7-139.1-168.6-38.7-305-49.2-415.1-42.9zm731.2 123.6c0 7 6.2 12.6 13.8 12.6 7.6 0 13.8-5.6 13.8-12.6s-6.2-12.6-13.8-12.6c-7.6 0-13.8 5.6-13.8 12.6zm-61-29c0 7 6.2 12.6 13.8 12.6s13.8-5.6 13.8-12.6-6.2-12.6-13.8-12.6-13.8 5.6-13.8 12.6zm-65-25c0 7 6.2 12.6 13.8 12.6s13.8-5.6 13.8-12.6-6.2-12.6-13.8-12.6-13.8 5.6-13.8 12.6zm-70-22c0 7 6.2 12.6 13.8 12.6s13.8-5.6 13.8-12.6-6.2-12.6-13.8-12.6-13.8 5.6-13.8 12.6zm-73-20c0 7 6.2 12.6 13.8 12.6s13.8-5.6 13.8-12.6-6.2-12.6-13.8-12.6-13.8 5.6-13.8 12.6zm-71-19c0 7 6.2 12.6 13.8 12.6s13.8-5.6 13.8-12.6-6.2-12.6-13.8-12.6-13.8 5.6-13.8 12.6zm-73-13c0 7 6.2 12.6 13.8 12.6 7.6 0 13.8-5.6 13.8-12.6s-6.2-12.6-13.8-12.6c-7.6 0-13.8 5.6-13.8 12.6zm-72-11c0 7 6.2 12.6 13.8 12.6 7.6 0 13.8-5.6 13.8-12.6s-6.2-12.6-13.8-12.6c-7.6 0-13.8 5.6-13.8 12.6zm-67-7c0 7 6.2 12.6 13.8 12.6s13.8-5.6 13.8-12.6-6.2-12.6-13.8-12.6-13.8 5.6-13.8 12.6zm-65-4c0 7 6.2 12.6 13.8 12.6 7.6 0 13.8-5.6 13.8-12.6s-6.2-12.6-13.8-12.6c-7.6 0-13.8 5.6-13.8 12.6zm-50.2 10.6c7.6 0 13.8-5.6 13.8-12.6s-6.2-12.6-13.8-12.6c-7.6 0-13.8 5.6-13.8 12.6s6.2 12.6 13.8 12.6zm-174.7 449zM1646 454.3c-292.7-63.3-526.9-45.3-548.2 53.3-9.8 45.4 27.4 92.7 98.8 136.8-44-32-66.3-65.3-59.4-97.3 12.3-57 113.4-78.5 254.3-70.7 15.1-.9 31.3-1.2 48.4-.8-36.3 6.8-50.3 21.1-53.8 35.7-11.4 48 98.1 102 242.2 133.2 144.1 31.2 270.7 27.9 279.7-20.3 4.7-25.1-21.9-45.6-21.9-45.6 24.5 12 45.3 24.5 61.6 37.2 79.9 41.9 124.9 87.8 115.4 131.5-9.5 44.1-72.3 67-165.5 71.4 124.4.2 207.5-26 219.8-83 21.5-98.8-178.7-218.2-471.4-281.4zm698.9 306.5c-28.4 137.6-382.2 180.9-790.3 96.7-408.1-84.2-715.9-263.9-687.5-401.5 28.4-137.6 385.3-188.8 793.4-104.6 408.2 84.1 712.8 271.8 684.4 409.4zm-703.8-366.1c-371-76.5-698.9-45-724.7 80-25.8 125.1 263.5 277.4 634.5 354 371 76.5 706.8 62.4 732.6-62.7 25.7-125-271.5-294.7-642.4-371.3zm-333.8-183.5zm696.5 532.4c3.4-15.7-3.6-32.2-18.9-49-26.4 58.9-192.1 60.8-381.9 19.8-198.2-42.8-347.5-116.3-333.1-183.1.8-3.7 2.1-7.1 3.8-10.4-35 7.9-57.5 21.8-62.1 42.8-14.7 68.2 167.7 144 370 187.7 202.5 43.7 407.5 60.4 422.2-7.8zm-637.4-518.1zm0 0c-201.5.3-325.1 54.4-398.1 108 36.1-15.5 80.7-27.5 132-35.8 58.6-34.3 144.4-65.6 266.1-72.2z"/></svg>
