<?xml version="1.0" encoding="UTF-8" standalone="no"?>
<svg
   viewBox="0 0 962.84482 136.337"
   version="1.1"
   id="svg3387"
   width="150.84479"
   height="136.33701"
   xmlns="http://www.w3.org/2000/svg"
   xmlns:svg="http://www.w3.org/2000/svg">
  <style
     id="style3356">
    .head, .body, .hindlimb-second, .foot {
      fill: rgb(132, 189, 0);
    }
    .forelimb, .first-toe, .second-toe, .third-toe, .hindlimb-first {
      fill: rgb(167, 213, 0);
    }
    .center-stripe, .hindlimb-third {
      fill: rgb(84, 146, 0);
    }
  </style>
  <defs
     id="defs3383">
    <g
       id="left-half-def">
      <path
         class="head"
         d="M 80.95,2.827 C 76.575,2.395 30.015,54.22 30.015,54.22 l 17.201,21.661 z"
         id="path3358" />
      <path
         class="body"
         d="M 34.499,109.709 77.779,14.768 V 134.516 Z"
         id="path3360" />
      <path
         class="center-stripe"
         d="m 80.402,9.112 h 0.548 v 127.225 l -3.171,-1.821 V 14.768 Z"
         id="path3362" />
      <path
         class="center-stripe"
         d="m 80.95,136.337 -3.171,-1.821 V 14.768 l 2.623,-5.656 h 0.548 z"
         id="path3364" />
      <path
         class="forelimb"
         d="M 28.473,51.545 47.75,31.06 30.837,28.98 Z"
         id="path3366" />
      <path
         class="first-toe"
         d="M 33.71,27.168 47.971,11.58 41.571,28.063 Z"
         id="path3368" />
      <path
         class="second-toe"
         d="M 37.563,19.132 31.993,13.184 34.644,0 l 6.61,15.132 z"
         id="path3370" />
      <path
         class="third-toe"
         d="M 31.463,26.207 22.135,5.884 35.95,20.859 Z"
         id="path3372" />
      <path
         class="hindlimb-first"
         d="M 33.153,106.835 21.269,86.614 41.38,89.218 Z"
         id="path3374" />
      <path
         class="hindlimb-second"
         d="m 19.005,87.743 -5.2,22.166 18.249,-0.076 z"
         id="path3376" />
      <path
         class="hindlimb-third"
         d="m 47.966,120.204 -24.08,-0.12 -9.971,-8.004 19.356,0.073 z"
         id="path3378" />
      <path
         class="foot"
         d="M 15.52,117.01 0,135.967 l 41.224,-1.406 6.106,-11.917 -24.445,0.22 z"
         id="path3380" />
    </g>
  </defs>
  <g
     id="g11935">
    <g
       id="g11678">
      <path
         class="head"
         d="M 80.95,2.827 C 76.575,2.395 30.015,54.22 30.015,54.22 l 17.201,21.661 z"
         id="path10911" />
      <path
         class="body"
         d="M 34.499,109.709 77.779,14.768 V 134.516 Z"
         id="path10913" />
      <path
         class="center-stripe"
         d="m 80.402,9.112 h 0.548 v 127.225 l -3.171,-1.821 V 14.768 Z"
         id="path10915" />
      <path
         class="forelimb"
         d="M 28.473,51.545 47.75,31.06 30.837,28.98 Z"
         id="path10919" />
      <path
         class="first-toe"
         d="M 33.71,27.168 47.971,11.58 41.571,28.063 Z"
         id="path10921" />
      <path
         class="second-toe"
         d="M 37.563,19.132 31.993,13.184 34.644,0 l 6.61,15.132 z"
         id="path10923" />
      <path
         class="third-toe"
         d="M 31.463,26.207 22.135,5.884 35.95,20.859 Z"
         id="path10925" />
      <path
         class="hindlimb-first"
         d="M 33.153,106.835 21.269,86.614 41.38,89.218 Z"
         id="path10927" />
      <path
         class="hindlimb-second"
         d="m 19.005,87.743 -5.2,22.166 18.249,-0.076 z"
         id="path10929" />
      <path
         class="hindlimb-third"
         d="m 47.966,120.204 -24.08,-0.12 -9.971,-8.004 19.356,0.073 z"
         id="path10931" />
      <path
         class="foot"
         d="M 15.52,117.01 0,135.967 l 41.224,-1.406 6.106,-11.917 -24.445,0.22 z"
         id="path10933" />
      <path
         class="head"
         d="M 80.95,2.827 C 85.325,2.395 131.885,54.22 131.885,54.22 L 114.684,75.881 Z"
         id="path10937" />
      <path
         class="body"
         d="M 127.401,109.709 84.121,14.768 v 119.748 z"
         id="path10939" />
      <path
         class="center-stripe"
         d="M 81.498,9.112 H 80.95 v 127.225 l 3.171,-1.821 V 14.768 Z"
         id="path10941" />
      <path
         id="path10943"
         class="center-stripe"
         d="M 77.779,134.516 V 14.768 l 2.623,-5.656 h 1.096 l 2.623,5.656 v 119.748 l -3.171,1.821 z" />
      <path
         class="forelimb"
         d="M 133.427,51.545 114.15,31.06 131.063,28.98 Z"
         id="path10945" />
      <path
         class="first-toe"
         d="m 128.19,27.168 -14.261,-15.588 6.4,16.483 z"
         id="path10947" />
      <path
         class="second-toe"
         d="m 124.337,19.132 5.57,-5.948 L 127.256,0 l -6.61,15.132 z"
         id="path10949" />
      <path
         class="third-toe"
         d="M 130.437,26.207 139.765,5.884 125.95,20.859 Z"
         id="path10951" />
      <path
         class="hindlimb-first"
         d="M 128.747,106.835 140.631,86.614 120.52,89.218 Z"
         id="path10953" />
      <path
         class="hindlimb-second"
         d="m 142.895,87.743 5.2,22.166 -18.249,-0.076 z"
         id="path10955" />
      <path
         class="hindlimb-third"
         d="m 113.934,120.204 24.08,-0.12 9.971,-8.004 -19.356,0.073 z"
         id="path10957" />
      <path
         class="foot"
         d="m 146.38,117.01 15.52,18.957 -41.224,-1.406 -6.106,-11.917 24.445,0.22 z"
         id="path10959" />
    </g>
    <g
       id="g11898">
      <path
         d="m 227.66966,44.130741 -6.35791,6.569851 q -7.91208,-7.700147 -15.47094,-7.700147 -4.80376,0 -8.2653,3.178959 -3.39089,3.17896 -3.39089,7.417573 0,3.744109 2.82574,7.134999 2.82575,3.461534 11.86812,8.124008 11.02039,5.722128 14.97643,11.020395 3.8854,5.368909 3.8854,12.080047 0,9.466234 -6.6405,16.036084 -6.64049,6.56985 -16.60123,6.56985 -6.64049,0 -12.71584,-2.89638 -6.0047,-2.89639 -9.96074,-7.98272 l 6.21663,-7.06436 q 7.55886,8.54787 16.03609,8.54787 5.93406,0 10.10203,-3.81475 4.16797,-3.814754 4.16797,-8.971733 0,-4.238613 -2.7551,-7.55886 -2.7551,-3.249603 -12.43327,-8.194652 -10.3846,-5.36891 -14.12871,-10.596533 -3.74411,-5.227622 -3.74411,-11.93876 0,-8.7598 5.93406,-14.552571 6.0047,-5.792772 15.11772,-5.792772 10.59653,0 21.33435,10.384602 z"
         id="path11847"
         style="font-size:144.678px;line-height:1.25;font-family:'Century Gothic';-inkscape-font-specification:'Century Gothic, Normal';fill:#84bd00;stroke-width:3.61692" />
      <path
         d="m 281.64134,33.746139 q 17.73153,0 29.38771,12.857127 10.59654,11.726829 10.59654,27.762916 0,16.106729 -11.23233,28.186778 -11.16168,12.0094 -28.75192,12.0094 -17.66089,0 -28.89322,-12.0094 -11.16168,-12.080049 -11.16168,-28.186778 0,-15.965443 10.59654,-27.692273 11.65618,-12.92777 29.45836,-12.92777 z m 0,9.678167 q -12.29198,0 -21.12243,9.113018 -8.83044,9.113018 -8.83044,22.040788 0,8.335939 4.02668,15.541582 4.02669,7.205642 10.87911,11.161676 6.85242,3.8854 15.04708,3.8854 8.19465,0 15.04707,-3.8854 6.85243,-3.956034 10.87911,-11.161676 4.02668,-7.205643 4.02668,-15.541582 0,-12.92777 -8.90109,-22.040788 -8.83044,-9.113018 -21.05177,-9.113018 z"
         id="path11849"
         style="font-size:144.678px;line-height:1.25;font-family:'Century Gothic';-inkscape-font-specification:'Century Gothic, Normal';fill:#84bd00;stroke-width:3.61692" />
      <path
         d="m 338.65068,35.724159 h 9.96074 v 35.886924 q 0,13.139701 1.41287,18.084749 2.11931,7.064355 8.05337,11.161678 6.0047,4.09733 14.26999,4.09733 8.2653,0 13.98743,-3.95604 5.79277,-4.026682 7.98272,-10.525889 1.48351,-4.450543 1.48351,-18.861828 V 35.724159 h 10.10203 v 37.723656 q 0,15.894799 -3.74411,23.948164 -3.67346,8.053361 -11.16168,12.645201 -7.41757,4.52118 -18.6499,4.52118 -11.23232,0 -18.79118,-4.52118 -7.48822,-4.59184 -11.23232,-12.715844 -3.67347,-8.194652 -3.67347,-24.583956 z"
         id="path11851"
         style="font-size:144.678px;line-height:1.25;font-family:'Century Gothic';-inkscape-font-specification:'Century Gothic, Normal';fill:#84bd00;stroke-width:3.61692" />
      <path
         d="m 424.05874,35.724159 h 10.10203 v 11.232324 q 4.52119,-6.640493 9.53688,-9.890097 5.01569,-3.320247 10.45524,-3.320247 4.09733,0 8.7598,2.613812 l -5.15697,8.335939 q -3.10832,-1.342228 -5.22763,-1.342228 -4.94505,0 -9.53688,4.097326 -4.59183,4.026683 -6.99371,12.574553 -1.83673,6.56985 -1.83673,26.561975 v 25.996824 h -10.10203 z"
         id="path11853"
         style="font-size:144.678px;line-height:1.25;font-family:'Century Gothic';-inkscape-font-specification:'Century Gothic, Normal';fill:#84bd00;stroke-width:3.61692" />
      <path
         d="m 544.8592,51.689601 -7.84144,4.874405 q -10.17267,-13.492918 -27.76291,-13.492918 -14.05807,0 -23.38302,9.042375 -9.2543,9.042374 -9.2543,21.970144 0,8.406583 4.23861,15.824156 4.30926,7.417573 11.72683,11.514897 7.48821,4.09733 16.74252,4.09733 16.95445,0 27.69227,-13.492921 l 7.84144,5.15698 q -5.5102,8.265291 -14.83515,12.857131 -9.2543,4.52118 -21.12242,4.52118 -18.22604,0 -30.23544,-11.58554 -12.00941,-11.585543 -12.00941,-28.186777 0,-11.161681 5.58085,-20.698561 5.65148,-9.607523 15.47093,-14.976433 9.81946,-5.36891 21.97015,-5.36891 7.6295,0 14.69386,2.331238 7.135,2.331237 12.08004,6.075345 4.94505,3.744108 8.40659,9.536879 z"
         id="path11855"
         style="font-size:144.678px;line-height:1.25;font-family:'Century Gothic';-inkscape-font-specification:'Century Gothic, Normal';fill:#84bd00;stroke-width:3.61692" />
      <path
         d="m 628.43053,87.082021 8.33593,4.3799 q -4.09732,8.053365 -9.46623,12.998409 -5.36891,4.94505 -12.08005,7.55886 -6.71114,2.54317 -15.18836,2.54317 -18.79119,0 -29.38772,-12.29198 -10.59653,-12.362617 -10.59653,-27.904198 0,-14.623216 8.97173,-26.067471 11.37361,-14.552572 30.44737,-14.552572 19.63891,0 31.36574,14.90579 8.33594,10.525889 8.47722,26.279401 h -69.08939 q 0.28257,13.422275 8.54787,22.040788 8.26529,8.547872 20.41598,8.547872 5.86342,0 11.37362,-2.04867 5.58084,-2.04866 9.46623,-5.439549 3.8854,-3.39089 8.40659,-10.94975 z m 0,-20.698561 q -1.97802,-7.912078 -5.79278,-12.645196 -3.7441,-4.733118 -9.96074,-7.629503 -6.21663,-2.896386 -13.06905,-2.896386 -11.30297,0 -19.42698,7.276286 -5.93406,5.298266 -8.97173,15.894799 z"
         id="path11857"
         style="font-size:144.678px;line-height:1.25;font-family:'Century Gothic';-inkscape-font-specification:'Century Gothic, Normal';fill:#84bd00;stroke-width:3.61692" />
      <path
         d="m 657.45273,7.3960946 h 19.21504 V 35.724159 h 11.44426 V 52.325393 H 676.66777 V 112.58434 H 657.45273 V 52.325393 h -9.8901 V 35.724159 h 9.8901 z"
         id="path11838"
         style="font-weight:bold;font-size:144.678px;line-height:1.25;font-family:'Century Gothic';-inkscape-font-specification:'Century Gothic, Bold';fill:#84bd00;stroke-width:3.61692" />
      <path
         d="m 734.73677,33.746139 q 10.87911,0 20.41599,5.439554 9.60752,5.439553 14.97643,14.764502 5.36891,9.324949 5.36891,20.133412 0,10.879107 -5.43955,20.345343 -5.36891,9.46624 -14.69386,14.83515 -9.32495,5.29826 -20.55727,5.29826 -16.5306,0 -28.25743,-11.72683 -11.65618,-11.79747 -11.65618,-28.610636 0,-18.014105 13.21034,-30.023509 11.58555,-10.455246 26.63262,-10.455246 z m 0.28258,18.155393 q -8.97174,0 -14.97644,6.287276 -5.93406,6.216633 -5.93406,15.965443 0,10.031384 5.86342,16.248017 5.93406,6.216632 14.97643,6.216632 9.04238,0 15.04708,-6.287276 6.0047,-6.287276 6.0047,-16.177373 0,-9.890097 -5.93406,-16.036086 -5.86341,-6.216633 -15.04707,-6.216633 z"
         id="path11840"
         style="font-weight:bold;font-size:144.678px;line-height:1.25;font-family:'Century Gothic';-inkscape-font-specification:'Century Gothic, Bold';fill:#84bd00;stroke-width:3.61692" />
      <path
         d="m 848.11968,35.724159 h 19.21505 v 76.860181 h -19.21505 v -8.12401 q -5.65148,5.36891 -11.37361,7.7708 -5.65148,2.33123 -12.29198,2.33123 -14.90579,0 -25.78489,-11.5149 -10.87911,-11.585539 -10.87911,-28.751922 0,-17.802175 10.52589,-29.175787 10.52589,-11.373612 25.57296,-11.373612 6.92307,0 12.99842,2.613812 6.07534,2.613811 11.23232,7.841434 z m -20.2747,15.824155 q -8.97173,0 -14.90579,6.35792 -5.93406,6.287276 -5.93406,16.177373 0,9.960741 6.00471,16.389304 6.07534,6.428563 14.90579,6.428563 9.11301,0 15.11772,-6.287276 6.0047,-6.357919 6.0047,-16.601234 0,-10.031385 -6.0047,-16.248017 -6.00471,-6.216633 -15.18837,-6.216633 z"
         id="path11842"
         style="font-weight:bold;font-size:144.678px;line-height:1.25;font-family:'Century Gothic';-inkscape-font-specification:'Century Gothic, Bold';fill:#84bd00;stroke-width:3.61692" />
      <path
         d="M 943.62975,6.0538671 H 962.8448 V 112.58434 h -19.21505 v -8.12401 q -5.65148,5.36891 -11.37361,7.7708 -5.65148,2.33123 -12.29198,2.33123 -14.90579,0 -25.78489,-11.5149 -10.87911,-11.585539 -10.87911,-28.751922 0,-17.802175 10.52589,-29.175787 10.52589,-11.373612 25.57296,-11.373612 6.92307,0 12.99842,2.613812 6.07534,2.613811 11.23232,7.841434 z m -20.2747,45.4944469 q -8.97173,0 -14.90579,6.35792 -5.93405,6.287276 -5.93405,16.177373 0,9.960741 6.0047,16.389304 6.07534,6.428563 14.90579,6.428563 9.11301,0 15.11772,-6.287276 6.0047,-6.357919 6.0047,-16.601234 0,-10.031385 -6.0047,-16.248017 -6.00471,-6.216633 -15.18837,-6.216633 z"
         id="path11844"
         style="font-weight:bold;font-size:144.678px;line-height:1.25;font-family:'Century Gothic';-inkscape-font-specification:'Century Gothic, Bold';fill:#84bd00;stroke-width:3.61692" />
    </g>
  </g>
</svg>
